<?xml version="1.0" encoding="UTF-8" standalone="no"?>
<!DOCTYPE svg PUBLIC "-//W3C//DTD SVG 1.1//EN" "http://www.w3.org/Graphics/SVG/1.1/DTD/svg11.dtd">
<svg width="100%" height="100%" viewBox="0 0 1079 1079" version="1.1" xmlns="http://www.w3.org/2000/svg" xmlns:xlink="http://www.w3.org/1999/xlink" xml:space="preserve" xmlns:serif="http://www.serif.com/" style="fill-rule:evenodd;clip-rule:evenodd;stroke-linejoin:round;stroke-miterlimit:2;">
    <g id="Artboard1" transform="matrix(0.998346,0,0,0.998344,0,0)">
        <rect x="0" y="0" width="1080" height="1080" style="fill:none;"/>
        <clipPath id="_clip1">
            <rect x="0" y="0" width="1080" height="1080"/>
        </clipPath>
        <g clip-path="url(#_clip1)">
            <g transform="matrix(1.00166,0,0,1.00166,0.0216599,-0.965629)">
                <rect x="0" y="0" width="1080" height="1080" style="fill:rgb(23,23,23);"/>
                <g transform="matrix(8.57413e-17,-1.40026,1.40026,8.57413e-17,483.396,1261.37)">
                    <g transform="matrix(576,0,0,576,321.634,278.119)">
                        <path d="M0.324,-0.714C0.415,-0.714 0.483,-0.694 0.528,-0.655C0.572,-0.616 0.595,-0.56 0.595,-0.487C0.595,-0.454 0.59,-0.423 0.581,-0.394C0.572,-0.364 0.557,-0.337 0.536,-0.314C0.515,-0.29 0.487,-0.271 0.452,-0.258C0.417,-0.244 0.375,-0.237 0.324,-0.237L0.27,-0.237L0.27,-0L0.077,-0L0.077,-0.714L0.324,-0.714ZM0.32,-0.558L0.27,-0.558L0.27,-0.394L0.308,-0.394C0.325,-0.394 0.34,-0.397 0.355,-0.403C0.369,-0.408 0.38,-0.418 0.389,-0.431C0.398,-0.444 0.402,-0.461 0.402,-0.482C0.402,-0.505 0.395,-0.523 0.382,-0.537C0.369,-0.551 0.348,-0.558 0.32,-0.558Z" style="fill:rgb(235,235,235);fill-rule:nonzero;"/>
                    </g>
                </g>
                <g transform="matrix(1.02885,-4.93038e-32,-2.46519e-32,1.02885,465.062,481.041)">
                    <g transform="matrix(48,0,0,48,220.757,93.7862)">
                        <path d="M0.594,-0.278C0.594,-0.232 0.588,-0.191 0.575,-0.155C0.562,-0.119 0.544,-0.089 0.52,-0.065C0.496,-0.04 0.467,-0.022 0.433,-0.009C0.399,0.004 0.36,0.01 0.317,0.01C0.277,0.01 0.24,0.004 0.207,-0.009C0.173,-0.022 0.144,-0.04 0.12,-0.065C0.095,-0.089 0.076,-0.119 0.063,-0.155C0.049,-0.191 0.042,-0.232 0.042,-0.278C0.042,-0.339 0.053,-0.391 0.076,-0.434C0.098,-0.476 0.13,-0.508 0.171,-0.53C0.212,-0.552 0.262,-0.563 0.32,-0.563C0.373,-0.563 0.421,-0.552 0.462,-0.53C0.503,-0.508 0.535,-0.476 0.559,-0.434C0.582,-0.391 0.594,-0.339 0.594,-0.278ZM0.236,-0.278C0.236,-0.247 0.239,-0.22 0.244,-0.198C0.249,-0.176 0.258,-0.16 0.271,-0.149C0.283,-0.137 0.299,-0.132 0.319,-0.132C0.339,-0.132 0.355,-0.137 0.367,-0.149C0.378,-0.16 0.387,-0.176 0.392,-0.198C0.397,-0.22 0.4,-0.247 0.4,-0.278C0.4,-0.309 0.397,-0.336 0.392,-0.357C0.387,-0.378 0.378,-0.394 0.366,-0.405C0.354,-0.416 0.338,-0.421 0.318,-0.421C0.289,-0.421 0.269,-0.409 0.256,-0.385C0.243,-0.361 0.236,-0.325 0.236,-0.278Z" style="fill:rgb(235,235,235);fill-rule:nonzero;"/>
                    </g>
                    <g transform="matrix(48,0,0,48,249.797,93.7862)">
                        <path d="M0.238,0.01C0.181,0.01 0.134,-0.014 0.098,-0.063C0.061,-0.112 0.042,-0.183 0.042,-0.276C0.042,-0.371 0.061,-0.442 0.099,-0.491C0.136,-0.539 0.185,-0.563 0.245,-0.563C0.27,-0.563 0.291,-0.56 0.309,-0.553C0.327,-0.546 0.343,-0.536 0.356,-0.524C0.369,-0.511 0.381,-0.497 0.39,-0.482L0.394,-0.482C0.391,-0.496 0.389,-0.515 0.388,-0.54C0.386,-0.565 0.385,-0.589 0.385,-0.612L0.385,-0.76L0.577,-0.76L0.577,-0L0.433,-0L0.392,-0.07L0.385,-0.07C0.376,-0.055 0.365,-0.042 0.352,-0.03C0.339,-0.018 0.323,-0.008 0.304,-0.001C0.285,0.006 0.263,0.01 0.238,0.01ZM0.316,-0.141C0.347,-0.141 0.368,-0.151 0.381,-0.17C0.394,-0.189 0.4,-0.219 0.401,-0.259L0.401,-0.274C0.401,-0.317 0.395,-0.351 0.383,-0.374C0.37,-0.397 0.347,-0.409 0.314,-0.409C0.291,-0.409 0.273,-0.398 0.258,-0.376C0.243,-0.354 0.235,-0.32 0.235,-0.273C0.235,-0.227 0.243,-0.194 0.258,-0.173C0.273,-0.152 0.292,-0.141 0.316,-0.141Z" style="fill:rgb(235,235,235);fill-rule:nonzero;"/>
                    </g>
                    <g transform="matrix(48,0,0,48,279.317,93.7862)">
                        <path d="M0.318,0.01C0.262,0.01 0.213,0 0.172,-0.02C0.131,-0.04 0.099,-0.071 0.076,-0.113C0.053,-0.155 0.042,-0.209 0.042,-0.274C0.042,-0.341 0.055,-0.396 0.08,-0.439C0.105,-0.481 0.14,-0.512 0.184,-0.533C0.227,-0.553 0.277,-0.563 0.333,-0.563C0.367,-0.563 0.399,-0.559 0.43,-0.552C0.46,-0.545 0.488,-0.534 0.514,-0.521L0.458,-0.38C0.435,-0.39 0.414,-0.398 0.395,-0.404C0.375,-0.41 0.354,-0.413 0.333,-0.413C0.314,-0.413 0.297,-0.408 0.282,-0.398C0.267,-0.388 0.256,-0.373 0.248,-0.353C0.24,-0.332 0.236,-0.306 0.236,-0.275C0.236,-0.243 0.24,-0.217 0.249,-0.198C0.257,-0.179 0.268,-0.165 0.283,-0.156C0.298,-0.147 0.315,-0.142 0.334,-0.142C0.361,-0.142 0.389,-0.146 0.417,-0.155C0.444,-0.164 0.47,-0.176 0.495,-0.191L0.495,-0.039C0.472,-0.024 0.447,-0.013 0.418,-0.004C0.389,0.006 0.356,0.01 0.318,0.01Z" style="fill:rgb(235,235,235);fill-rule:nonzero;"/>
                    </g>
                    <g transform="matrix(48,0,0,48,302.357,93.7862)">
                        <path d="M0.336,-0.563C0.406,-0.563 0.461,-0.546 0.5,-0.511C0.539,-0.476 0.559,-0.427 0.559,-0.363L0.559,-0L0.427,-0L0.39,-0.073L0.386,-0.073C0.371,-0.054 0.355,-0.038 0.339,-0.026C0.322,-0.013 0.303,-0.004 0.282,0.002C0.261,0.007 0.235,0.01 0.204,0.01C0.172,0.01 0.143,0.004 0.118,-0.01C0.093,-0.023 0.073,-0.042 0.058,-0.069C0.043,-0.095 0.036,-0.128 0.036,-0.169C0.036,-0.228 0.057,-0.272 0.098,-0.301C0.138,-0.33 0.198,-0.346 0.276,-0.349L0.368,-0.352L0.368,-0.36C0.368,-0.385 0.362,-0.402 0.35,-0.413C0.338,-0.423 0.322,-0.428 0.301,-0.428C0.279,-0.428 0.255,-0.424 0.228,-0.417C0.201,-0.409 0.174,-0.399 0.147,-0.387L0.092,-0.513C0.124,-0.53 0.16,-0.542 0.201,-0.551C0.241,-0.559 0.286,-0.563 0.336,-0.563ZM0.325,-0.245C0.29,-0.244 0.266,-0.238 0.252,-0.227C0.237,-0.216 0.23,-0.2 0.23,-0.18C0.23,-0.161 0.235,-0.148 0.245,-0.139C0.255,-0.13 0.268,-0.125 0.285,-0.125C0.308,-0.125 0.328,-0.132 0.345,-0.147C0.361,-0.162 0.369,-0.181 0.369,-0.204L0.369,-0.247L0.325,-0.245Z" style="fill:rgb(235,235,235);fill-rule:nonzero;"/>
                    </g>
                    <g transform="matrix(48,0,0,48,329.285,93.7862)">
                        <path d="M0.477,-0.17C0.477,-0.135 0.469,-0.104 0.454,-0.077C0.438,-0.05 0.413,-0.028 0.379,-0.013C0.344,0.002 0.299,0.01 0.243,0.01C0.204,0.01 0.169,0.008 0.138,0.004C0.107,-0.001 0.075,-0.009 0.043,-0.021L0.043,-0.174C0.078,-0.158 0.114,-0.147 0.15,-0.14C0.186,-0.133 0.214,-0.129 0.235,-0.129C0.256,-0.129 0.272,-0.131 0.282,-0.136C0.292,-0.141 0.297,-0.148 0.297,-0.157C0.297,-0.165 0.294,-0.172 0.287,-0.178C0.28,-0.184 0.269,-0.191 0.252,-0.198C0.235,-0.205 0.21,-0.215 0.179,-0.228C0.148,-0.241 0.123,-0.255 0.103,-0.27C0.082,-0.284 0.067,-0.303 0.057,-0.324C0.047,-0.345 0.042,-0.37 0.042,-0.4C0.042,-0.454 0.063,-0.495 0.105,-0.522C0.146,-0.549 0.201,-0.563 0.27,-0.563C0.307,-0.563 0.341,-0.559 0.373,-0.551C0.405,-0.543 0.438,-0.531 0.473,-0.516L0.421,-0.393C0.394,-0.406 0.366,-0.416 0.338,-0.423C0.31,-0.43 0.288,-0.434 0.271,-0.434C0.256,-0.434 0.245,-0.432 0.237,-0.428C0.228,-0.424 0.224,-0.418 0.224,-0.411C0.224,-0.404 0.227,-0.398 0.233,-0.393C0.238,-0.388 0.249,-0.382 0.265,-0.375C0.281,-0.368 0.304,-0.359 0.335,-0.346C0.367,-0.333 0.394,-0.32 0.415,-0.305C0.436,-0.29 0.451,-0.272 0.462,-0.251C0.472,-0.23 0.477,-0.203 0.477,-0.17Z" style="fill:rgb(235,235,235);fill-rule:nonzero;"/>
                    </g>
                    <g transform="matrix(48,0,0,48,352.277,93.7862)">
                        <path d="M0.337,-0.141C0.354,-0.141 0.37,-0.143 0.385,-0.147C0.399,-0.15 0.414,-0.155 0.429,-0.16L0.429,-0.021C0.408,-0.012 0.386,-0.005 0.363,0.001C0.34,0.007 0.31,0.01 0.274,0.01C0.238,0.01 0.206,0.004 0.18,-0.007C0.153,-0.018 0.131,-0.038 0.116,-0.066C0.101,-0.093 0.093,-0.132 0.093,-0.182L0.093,-0.41L0.026,-0.41L0.026,-0.488L0.111,-0.548L0.16,-0.664L0.285,-0.664L0.285,-0.553L0.421,-0.553L0.421,-0.41L0.285,-0.41L0.285,-0.195C0.285,-0.177 0.29,-0.164 0.299,-0.155C0.308,-0.146 0.32,-0.141 0.337,-0.141Z" style="fill:rgb(235,235,235);fill-rule:nonzero;"/>
                    </g>
                    <g transform="matrix(48,0,0,48,369.605,93.7862)">
                        <path d="M0.477,-0.17C0.477,-0.135 0.469,-0.104 0.454,-0.077C0.438,-0.05 0.413,-0.028 0.379,-0.013C0.344,0.002 0.299,0.01 0.243,0.01C0.204,0.01 0.169,0.008 0.138,0.004C0.107,-0.001 0.075,-0.009 0.043,-0.021L0.043,-0.174C0.078,-0.158 0.114,-0.147 0.15,-0.14C0.186,-0.133 0.214,-0.129 0.235,-0.129C0.256,-0.129 0.272,-0.131 0.282,-0.136C0.292,-0.141 0.297,-0.148 0.297,-0.157C0.297,-0.165 0.294,-0.172 0.287,-0.178C0.28,-0.184 0.269,-0.191 0.252,-0.198C0.235,-0.205 0.21,-0.215 0.179,-0.228C0.148,-0.241 0.123,-0.255 0.103,-0.27C0.082,-0.284 0.067,-0.303 0.057,-0.324C0.047,-0.345 0.042,-0.37 0.042,-0.4C0.042,-0.454 0.063,-0.495 0.105,-0.522C0.146,-0.549 0.201,-0.563 0.27,-0.563C0.307,-0.563 0.341,-0.559 0.373,-0.551C0.405,-0.543 0.438,-0.531 0.473,-0.516L0.421,-0.393C0.394,-0.406 0.366,-0.416 0.338,-0.423C0.31,-0.43 0.288,-0.434 0.271,-0.434C0.256,-0.434 0.245,-0.432 0.237,-0.428C0.228,-0.424 0.224,-0.418 0.224,-0.411C0.224,-0.404 0.227,-0.398 0.233,-0.393C0.238,-0.388 0.249,-0.382 0.265,-0.375C0.281,-0.368 0.304,-0.359 0.335,-0.346C0.367,-0.333 0.394,-0.32 0.415,-0.305C0.436,-0.29 0.451,-0.272 0.462,-0.251C0.472,-0.23 0.477,-0.203 0.477,-0.17Z" style="fill:rgb(235,235,235);fill-rule:nonzero;"/>
                    </g>
                </g>
            </g>
        </g>
    </g>
</svg>
